HIERARCHY
ROOT pelvis
{
  OFFSET 0 100 0
  CHANNELS 6 Xposition Yposition Zposition Zrotation Xrotation Yrotation
  JOINT pelvis_right_femur
  {
    OFFSET -10.78128 -3.44521 -0.5502486
    CHANNELS 3 Zrotation Xrotation Yrotation
    JOINT right_femur_tibia
    {
      OFFSET -0.8047443 -44.0398 -0.1307829
      CHANNELS 3 Zrotation Xrotation Yrotation
      JOINT right_tibia_foot
      {
        OFFSET 3.006224 -47.83518 -5
        CHANNELS 3 Zrotation Xrotation Yrotation
        End Site
        {
          OFFSET 0 -5 15
        }
      }
    }
  }
  JOINT pelvis_left_femur
  {
    OFFSET 10.78128 -3.44521 -0.5502486
    CHANNELS 3 Zrotation Xrotation Yrotation
    JOINT left_femur_tibia
    {
      OFFSET 0.8047443 -44.0398 -0.1307829
      CHANNELS 3 Zrotation Xrotation Yrotation
      JOINT left_tibia_foot
      {
        OFFSET -4.370144 -48.10324 -4.275266
        CHANNELS 3 Zrotation Xrotation Yrotation
        End Site
        {
          OFFSET 0 -5 15
        }
      }
    }
  }
  JOINT pelvis_spine1
  {
    OFFSET 0 6.468898 -3.129235
    CHANNELS 3 Zrotation Xrotation Yrotation
    JOINT spine1
    {
      OFFSET 0 23.15396 4.99043
      CHANNELS 3 Zrotation Xrotation Yrotation
      JOINT spine2
      {
        OFFSET 0 20.79997 -5.064912
        CHANNELS 3 Zrotation Xrotation Yrotation
        JOINT neck
        {
          OFFSET 0 14.38658 9.616178
          CHANNELS 3 Zrotation Xrotation Yrotation
          End Site
          {
            OFFSET 0 20 0
          }
        }
      }
      JOINT right_manubrium
      {
        OFFSET -5.722621 16.35077 3.967754
        CHANNELS 3 Zrotation Xrotation Yrotation
        JOINT right_clavicle
        {
          OFFSET -13.16364 1.694482 -4.693211
          CHANNELS 3 Zrotation Xrotation Yrotation
          JOINT right_humerus
          {
            OFFSET -28.5034 -0.3100689 -2.792744
            CHANNELS 3 Zrotation Xrotation Yrotation
            JOINT right_radius
            {
              OFFSET -25.15693 0.02248979 -1.271978
              CHANNELS 3 Zrotation Xrotation Yrotation
              End Site
              {
                OFFSET -15 0 0
              }
            }
          }
        }
      }
      JOINT left_manubrium
      {
        OFFSET 5.722621 16.35077 3.967754
        CHANNELS 3 Zrotation Xrotation Yrotation
        JOINT left_clavicle
        {
          OFFSET 13.16364 1.694482 -4.693211
          CHANNELS 3 Zrotation Xrotation Yrotation
          JOINT left_humerus
          {
            OFFSET 29.39168 -1.063119 -2.237045
            CHANNELS 3 Zrotation Xrotation Yrotation
            JOINT left_radius
            {
              OFFSET 24.59957 -0.9528479 0.9047498
              CHANNELS 3 Zrotation Xrotation Yrotation
              End Site
              {
                OFFSET 15 -0 -0
              }
            }
          }
        }
      }
    }
  }
}
MOTION
Frames: 17
Frame Time: 0.0416666666667
-345.319 120.6612 2531.399 -6.193057 -6.873006 -42.94344 6.54403 9.492997 -1.989695 -0 7.240821 -0 -13.44734 -7.86153 -1.103233 1.994584 -16.87331 -3.135613 -0 35.3356 -0 0.4247141 -3.782659 17.17525 2.038407 -1.992336 8.397719 0.288414 17.85925 -6.755515 1.014558 19.77659 1.395598 0.943365 -18.85302 2.841484 -3.493989 -29.47824 12.71954 92.2758 16.67016 -14.71141 -0 0 24.43974 -21.54853 14.35005 9.497064 2.027831 -25.40774 -10.30822 -92.35451 9.197861 33.30169 0 0 -11.72292 10.0986 12.61934 1.452256
-348.5167 120.0334 2535.549 -6.241415 -5.958842 -43.49227 6.51703 12.92607 -0.5350042 -0 8.692373 -0 -11.264 -11.35752 -1.75014 3.502541 -20.17513 -2.209862 -0 23.91831 -0 -0.5430025 -3.518869 17.62377 2.138015 -2.17868 8.500943 0.2352542 17.73811 -6.485479 1.176628 19.36398 1.034292 0.1204342 -19.18673 3.238863 -3.641517 -30.58398 12.70879 91.96472 16.73432 -13.17466 -0 0 26.1476 -21.65043 15.13776 11.04749 1.534991 -24.26594 -9.488218 -92.61444 9.260428 35.35954 0 0 -11.13322 8.990747 12.77826 3.214876
-351.7368 119.3305 2540.028 -5.903985 -4.847301 -44.03828 5.994387 15.61368 0.4636241 -0 11.11785 -0 -9.45242 -14.71106 -2.115616 3.79199 -21.95024 -2.422716 -0 15.27549 -0 -0.7395764 -3.323607 17.85275 2.095746 -2.33614 8.360005 0.07361304 17.36639 -6.127289 1.387895 19.16376 0.8654903 -0.4962623 -19.50955 3.769535 -3.654416 -31.16144 12.61153 91.49733 17.27425 -11.61863 -0 0 27.35963 -22.09635 15.72034 12.64716 1.327816 -22.98019 -8.528715 -92.60851 9.482449 36.42136 0 0 -10.5234 8.225229 13.22672 4.220833
-355.0778 118.7423 2544.833 -5.694598 -4.697127 -44.7265 4.733505 17.8637 0.525093 -0 14.16033 -0 -9.014198 -15.9946 -2.117343 2.552971 -21.25255 -4.430761 -0 11.2661 -0 -0.6351498 -3.630582 18.54412 1.931297 -2.406312 8.087874 -0.1537294 16.82252 -5.732694 1.575962 19.17056 0.9095465 -0.7988413 -19.72183 4.290563 -3.548639 -31.24652 12.45357 90.91296 18.17792 -10.20201 -0 0 28.03404 -22.69178 15.95092 13.99205 1.341646 -21.76626 -7.649262 -92.46206 9.780865 36.68382 0 0 -9.832624 7.822061 13.76606 4.543926
-358.5376 118.3617 2549.824 -5.765194 -5.316962 -45.45548 3.227512 19.02298 -0.02462285 -0 18.03093 -0 -10.10674 -14.21375 -1.65613 0.7570466 -18.7948 -7.17966 -0 10.37735 -0 -0.62206 -4.401756 19.43695 1.694528 -2.347 7.786922 -0.3627455 16.25886 -5.415079 1.68169 19.35818 1.127837 -0.7879928 -19.82445 4.689414 -3.408324 -30.96071 12.3012 90.43484 19.20287 -9.233263 -0 0 28.11199 -23.17043 15.73038 14.73376 1.462679 -20.85212 -7.033899 -92.2669 10.07278 36.37379 0 0 -9.103732 7.789917 14.1985 4.246561
-362.0509 118.2489 2554.84 -5.918864 -5.982293 -46.05395 1.989964 18.60883 -0.6421488 -0 22.45573 -0 -11.89965 -10.6639 -0.9122959 -0.7863206 -15.71536 -9.473073 -0 10.57934 -0 -0.4678262 -5.327687 20.06852 1.456125 -2.171956 7.533851 -0.4780302 15.84582 -5.276762 1.682744 19.65062 1.436344 -0.55051 -19.86905 4.904602 -3.301503 -30.4776 12.22618 90.27769 20.06793 -8.970729 -0 0 27.63703 -23.35063 15.14414 14.70871 1.596399 -20.41029 -6.771721 -92.07695 10.28428 35.71994 0 0 -8.480212 8.081274 14.40259 3.467047
-365.5356 118.3861 2559.743 -6.037805 -6.453138 -46.4402 1.093378 16.79939 -1.123222 -0 26.86332 -0 -13.71263 -6.851962 -0.1469377 -1.967694 -12.42954 -11.12039 -0 10.88684 -0 -0.06605355 -6.303481 20.38283 1.278135 -1.93926 7.369427 -0.4683711 15.66698 -5.354722 1.585449 19.94489 1.757264 -0.1790996 -19.87477 4.91483 -3.23738 -29.94032 12.2549 90.48157 20.60051 -9.461684 -0 0 26.78041 -23.20547 14.39897 14.00545 1.722933 -20.50863 -6.851216 -91.907 10.34781 34.8924 0 0 -8.150752 8.601059 14.36048 2.406821
-368.9129 118.7135 2564.432 -6.079074 -6.723763 -46.59295 0.4567059 13.80778 -1.438465 -0 30.92381 -0 -15.18837 -3.478871 0.4720441 -2.879144 -8.993718 -12.26929 -0 10.96943 -0 0.4925333 -7.40108 20.46508 1.172633 -1.698357 7.293436 -0.3511405 15.67869 -5.616019 1.403206 20.18146 2.071459 0.3037145 -19.80163 4.722634 -3.172706 -29.38001 12.35846 90.90995 20.82235 -10.55664 -0 0 25.71538 -22.8137 13.6319 12.81692 1.892611 -21.10609 -7.207995 -91.74574 10.22813 33.92912 0 0 -8.214345 9.278263 14.11753 1.196334
-372.1132 119.1494 2568.832 -6.006781 -6.804621 -46.52387 0.01218009 9.82037 -1.571765 -0 34.31151 -0 -16.02511 -0.9784468 0.7949813 -3.593001 -5.464186 -13.05367 -0 10.66569 -0 1.090143 -8.682487 20.3715 1.093952 -1.47155 7.271857 -0.1792485 15.75859 -5.977677 1.150078 20.36521 2.422909 0.9506312 -19.5775 4.350633 -3.020323 -28.71442 12.47854 91.32859 20.9111 -12.00117 -0 0 24.53018 -22.30317 12.86352 11.33827 2.193359 -22.09013 -7.761946 -91.57387 9.940786 32.73349 0 0 -8.641385 10.09294 13.73833 -0.1399653
-375.0799 119.584 2572.895 -5.777271 -6.691131 -46.27099 -0.283836 5.055596 -1.485542 -0 36.56792 -0 -15.92757 0.2139072 0.6532609 -4.151969 -1.940681 -13.58791 -0 9.844574 -0 1.658603 -10.14563 20.13388 0.967434 -1.269447 7.248474 -0.02425175 15.7733 -6.332326 0.8499109 20.53473 2.876976 1.827901 -19.14713 3.849308 -2.676163 -27.82178 12.55299 91.49745 21.10813 -13.50683 -0 0 23.25217 -21.82522 12.07998 9.774532 2.710181 -23.30082 -8.418883 -91.36468 9.542094 31.15335 0 0 -9.335574 11.04763 13.29943 -1.621936
-377.7816 119.8837 2576.604 -5.321102 -6.357702 -45.89233 -0.4626547 -0.2231566 -1.134626 -0 37.18171 -0 -14.70445 -0.220512 -0.04900483 -4.600221 1.433417 -13.97651 -0 8.476827 -0 2.242287 -11.72063 19.8055 0.7287301 -1.102845 7.160966 0.05093287 15.6289 -6.586729 0.5410489 20.72552 3.469005 2.937719 -18.52379 3.301501 -2.074856 -26.63512 12.53653 91.2699 21.62074 -14.81913 -0 0 21.90435 -21.5133 11.29801 8.339584 3.479304 -24.54361 -9.061409 -91.08007 9.107892 29.0904 0 0 -10.20114 12.1281 12.88287 -3.256712
-380.2272 119.9165 2579.986 -4.561054 -5.763656 -45.46224 -0.5127394 -5.796926 -0.5055185 -0 35.78238 -0 -12.42525 -2.189257 -1.182308 -5.001693 4.506428 -14.29117 -0 6.748519 -0 3.073379 -13.27848 19.50952 0.360061 -0.9819988 6.962623 0.02456045 15.3045 -6.70433 0.2698968 20.94702 4.170152 4.175246 -17.81128 2.810302 -1.245155 -25.20496 12.41833 90.66981 22.52099 -15.79585 -0 0 20.53279 -21.42633 10.57285 7.201382 4.458166 -25.62979 -9.563747 -90.68145 8.710862 26.57666 0 0 -11.18441 13.28255 12.55679 -5.012516
-382.469 119.6013 2583.106 -3.478445 -4.879897 -45.06713 -0.3213379 -11.53965 0.3208901 -0 32.43022 -0 -9.529248 -4.903789 -2.294418 -5.429666 7.125577 -14.55231 -0 5.105009 -0 4.528754 -14.65319 19.43886 -0.0975425 -0.910283 6.644328 -0.07332009 14.85269 -6.716799 0.07394642 21.17901 4.895073 5.360655 -17.16325 2.466505 -0.3137725 -23.68976 12.22619 89.87973 23.70698 -16.44383 -0 0 19.20329 -21.52295 9.96582 6.424284 5.533321 -26.43749 -9.835506 -90.15473 8.398855 23.78826 0 0 -12.27875 14.42494 12.35151 -6.806423
-384.5857 118.9594 2586.063 -2.196533 -3.748148 -44.78084 0.2807181 -17.2303 1.10271 -0 27.90118 -0 -6.831562 -6.969233 -2.754075 -5.920156 9.112313 -14.75292 -0 4.105556 -0 6.794835 -15.69667 19.72823 -0.56749 -0.8810378 6.240601 -0.1868578 14.36351 -6.688683 -0.03374376 21.38764 5.548849 6.329701 -16.70271 2.313355 0.5573233 -22.27805 12.01023 89.13308 24.97134 -16.87258 -0 0 17.98131 -21.70014 9.511011 5.968402 6.566004 -26.94586 -9.861652 -89.53013 8.185161 20.99202 0 0 -13.48412 15.46012 12.25513 -8.511681
-386.6692 118.0981 2588.968 -1.026298 -2.588592 -44.61758 1.21862 -22.26758 1.458889 -0 23.49556 -0 -5.220145 -7.232079 -2.289815 -6.397695 10.38496 -14.83342 -0 4.058139 -0 9.256907 -16.44298 20.19562 -0.975875 -0.8804716 5.809904 -0.2715214 13.91991 -6.671999 -0.06399699 21.54877 6.06969 7.001984 -16.47469 2.337857 1.242793 -21.10496 11.81669 88.6048 26.11232 -17.20975 -0 0 16.90757 -21.86392 9.207199 5.739381 7.44466 -27.21349 -9.699579 -88.87053 8.059689 18.44515 0 0 -14.76638 16.31692 12.23557 -10.00134
-388.8416 117.0969 2591.932 -0.3518997 -1.82061 -44.51492 1.949949 -25.84876 1.095955 -0 20.04656 -0 -4.86885 -5.821592 -1.474298 -6.677771 11.21445 -14.56823 -0 4.760816 -0 10.44991 -17.2309 20.26985 -1.272887 -0.8930977 5.403195 -0.3083992 13.57488 -6.691769 -0.03626421 21.65972 6.434712 7.372685 -16.46777 2.498755 1.673068 -20.22442 11.67312 88.38948 26.99494 -17.55535 -0 0 15.98204 -21.9695 9.030084 5.640425 8.107837 -27.32378 -9.433174 -88.2338 8.010541 16.30926 0 0 -16.06825 16.96455 12.26893 -11.20023
-391.2506 115.9637 2595.056 -0.2912642 -1.698982 -44.39184 2.039412 -27.75727 0.1235937 -0 17.39742 -0 -5.075123 -3.753743 -1.125756 -6.669914 12.05321 -13.75836 -0 5.881998 -0 9.549775 -18.30386 19.55449 -1.434657 -0.9065688 5.048769 -0.2961699 13.35133 -6.754287 0.03275197 21.73337 6.646256 7.470973 -16.65444 2.757462 1.820047 -19.63383 11.59038 88.52672 27.55282 -17.9719 -0 0 15.17467 -22.01237 8.946675 5.600383 8.534761 -27.34396 -9.130586 -87.654 8.033757 14.64521 0 0 -17.33336 17.40289 12.34861 -12.0903
